<mxfile host="app.diagrams.net" modified="2024-05-09T14:03:30.868Z" agent="Mozilla/5.0 (Macintosh; Intel Mac OS X 10_15_7) AppleWebKit/537.36 (KHTML, like Gecko) Chrome/124.0.0.0 Safari/537.36" etag="JSWhPxh6zIASt5q-zgdx" version="24.3.1" type="device">
  <diagram name="Page-1" id="vD751Zo12eYoRMIiZ_oR">
    <mxGraphModel dx="1306" dy="826" grid="1" gridSize="10" guides="1" tooltips="1" connect="1" arrows="1" fold="1" page="1" pageScale="1" pageWidth="850" pageHeight="1100" math="0" shadow="0">
      <root>
        <mxCell id="0" />
        <mxCell id="1" parent="0" />
        <mxCell id="KkgRIcHfUSdayZKUkGHH-1" value="" style="rounded=1;whiteSpace=wrap;html=1;strokeWidth=2;fontFamily=Ubuntu;fontStyle=1" vertex="1" parent="1">
          <mxGeometry x="110" y="220" width="330" height="180" as="geometry" />
        </mxCell>
        <mxCell id="KkgRIcHfUSdayZKUkGHH-2" value="Controller" style="rounded=1;whiteSpace=wrap;html=1;strokeWidth=2;fontFamily=Ubuntu;fontStyle=1" vertex="1" parent="1">
          <mxGeometry x="300" y="255" width="120" height="90" as="geometry" />
        </mxCell>
        <mxCell id="KkgRIcHfUSdayZKUkGHH-4" style="edgeStyle=orthogonalEdgeStyle;rounded=0;orthogonalLoop=1;jettySize=auto;html=1;entryX=0;entryY=0.5;entryDx=0;entryDy=0;strokeWidth=2;fontFamily=Ubuntu;fontStyle=1" edge="1" parent="1" source="KkgRIcHfUSdayZKUkGHH-3" target="KkgRIcHfUSdayZKUkGHH-2">
          <mxGeometry relative="1" as="geometry" />
        </mxCell>
        <mxCell id="KkgRIcHfUSdayZKUkGHH-3" value="RequestFilter" style="rounded=1;whiteSpace=wrap;html=1;strokeWidth=2;fontFamily=Ubuntu;fontStyle=1" vertex="1" parent="1">
          <mxGeometry x="130" y="255" width="120" height="90" as="geometry" />
        </mxCell>
        <mxCell id="KkgRIcHfUSdayZKUkGHH-6" value="@SpringBootTest" style="text;html=1;align=center;verticalAlign=middle;whiteSpace=wrap;rounded=0;strokeWidth=2;fontFamily=Ubuntu;fontStyle=1" vertex="1" parent="1">
          <mxGeometry x="210" y="360" width="130" height="30" as="geometry" />
        </mxCell>
        <mxCell id="KkgRIcHfUSdayZKUkGHH-12" value="" style="rounded=1;whiteSpace=wrap;html=1;strokeWidth=2;fontFamily=Ubuntu;fontStyle=1" vertex="1" parent="1">
          <mxGeometry x="520" y="220" width="330" height="180" as="geometry" />
        </mxCell>
        <mxCell id="KkgRIcHfUSdayZKUkGHH-13" value="Controller" style="rounded=1;whiteSpace=wrap;html=1;strokeWidth=2;fontFamily=Ubuntu;fontStyle=1" vertex="1" parent="1">
          <mxGeometry x="625" y="255" width="120" height="90" as="geometry" />
        </mxCell>
        <mxCell id="KkgRIcHfUSdayZKUkGHH-14" value="@WebMvcTest" style="text;html=1;align=center;verticalAlign=middle;whiteSpace=wrap;rounded=0;strokeWidth=2;fontFamily=Ubuntu;fontStyle=1" vertex="1" parent="1">
          <mxGeometry x="620" y="360" width="130" height="30" as="geometry" />
        </mxCell>
      </root>
    </mxGraphModel>
  </diagram>
</mxfile>
